<svg xmlns="http://www.w3.org/2000/svg" id="Layer_1" data-name="Layer 1" viewBox="0 0 927.29 315.42"><defs><style>.cls-1,.cls-2{fill:#fff;}.cls-2{stroke:#000;stroke-miterlimit:10;stroke-width:2px;}</style></defs><rect x="7.93" y="19.27" width="911.43" height="276.88" rx="56.08"></rect><path class="cls-1" d="M268.74,114.88l16.33-42.52h6.06l17.4,42.52h-6.41l-5-12.88H279.38l-4.67,12.88ZM281,97.42h14.41L291,85.65c-1.35-3.58-2.36-6.52-3-8.82a54.75,54.75,0,0,1-2.3,8.12Z"></path><path class="cls-1" d="M320.76,114.88,304.29,72.36h6.09l11.05,30.89q1.33,3.7,2.23,7,1-3.48,2.29-7l11.49-30.89h5.74l-16.65,42.52Z"></path><path class="cls-1" d="M339.15,114.88l16.32-42.52h6.06l17.4,42.52h-6.4l-5-12.88H349.79l-4.67,12.88Zm12.26-17.46h14.42l-4.44-11.77q-2-5.37-3-8.82A53.52,53.52,0,0,1,356.08,85Z"></path><path class="cls-1" d="M384.39,114.88V72.36H390v42.52Z"></path><path class="cls-1" d="M399.7,114.88V72.36h5.62v37.5h20.94v5Z"></path><path class="cls-1" d="M428.29,114.88l16.33-42.52h6.06l17.4,42.52h-6.41l-5-12.88H438.93l-4.67,12.88Zm12.27-17.46H455l-4.44-11.77c-1.35-3.58-2.36-6.52-3-8.82a54.75,54.75,0,0,1-2.3,8.12Z"></path><path class="cls-1" d="M472.34,114.88V72.36h16a19.7,19.7,0,0,1,7.81,1.29,10.11,10.11,0,0,1,4.61,4,10.5,10.5,0,0,1,1.67,5.61,9.58,9.58,0,0,1-1.48,5.13,10.51,10.51,0,0,1-4.46,3.89,11.15,11.15,0,0,1,5.93,3.85,10.36,10.36,0,0,1,2.07,6.44,12.42,12.42,0,0,1-1.26,5.55,10.59,10.59,0,0,1-3.12,4,13.14,13.14,0,0,1-4.65,2.11,28.52,28.52,0,0,1-6.86.71ZM478,90.23h9.2a20.34,20.34,0,0,0,5.36-.5,5.93,5.93,0,0,0,3.23-2.11,6.09,6.09,0,0,0,1.09-3.71,6.88,6.88,0,0,0-1-3.73,5.15,5.15,0,0,0-2.9-2.2,24,24,0,0,0-6.47-.6H478Zm0,19.63h10.59a25.22,25.22,0,0,0,3.83-.2,9.35,9.35,0,0,0,3.24-1.16,6.13,6.13,0,0,0,2.15-2.37,7.37,7.37,0,0,0,.84-3.58,7,7,0,0,0-1.22-4.13A6.46,6.46,0,0,0,494,96a21.05,21.05,0,0,0-6.22-.71H478Z"></path><path class="cls-1" d="M512,114.88V72.36h5.63v37.5h20.93v5Z"></path><path class="cls-1" d="M545.33,114.88V72.36h30.74v5H551v13h23.52v5H551v14.47h26.1v5Z"></path><path class="cls-1" d="M599.61,94.17q0-10.59,5.69-16.57a19.33,19.33,0,0,1,14.67-6,20.4,20.4,0,0,1,10.61,2.81,18.38,18.38,0,0,1,7.21,7.85,25.51,25.51,0,0,1,2.48,11.41,25,25,0,0,1-2.61,11.57,17.85,17.85,0,0,1-7.4,7.73,21.11,21.11,0,0,1-10.32,2.62,20.13,20.13,0,0,1-10.73-2.9,18.6,18.6,0,0,1-7.16-7.92A24,24,0,0,1,599.61,94.17Zm5.8.09q0,7.68,4.13,12.1a14.41,14.41,0,0,0,20.83,0q4.1-4.47,4.1-12.67a21.92,21.92,0,0,0-1.75-9.06,13.58,13.58,0,0,0-5.14-6A13.91,13.91,0,0,0,620,76.45a14.37,14.37,0,0,0-10.28,4.11Q605.42,84.66,605.41,94.26Z"></path><path class="cls-1" d="M647.46,114.88V72.36h5.77l22.33,33.38V72.36H681v42.52h-5.77L652.85,81.47v33.41Z"></path><path class="cls-2" d="M268.66,221.78l30.48-79.36h11.31l32.48,79.36H331l-9.26-24H288.53l-8.71,24Zm22.9-32.59h26.9l-8.28-22q-3.78-10-5.63-16.45a100.79,100.79,0,0,1-4.27,15.15Z"></path><path class="cls-2" d="M350.08,243.81V164.29H359v7.47a22,22,0,0,1,7.1-6.58,19.47,19.47,0,0,1,9.58-2.19,22.72,22.72,0,0,1,13,3.79,23.35,23.35,0,0,1,8.5,10.69A39.06,39.06,0,0,1,400,192.6a38.47,38.47,0,0,1-3.17,15.89,24.1,24.1,0,0,1-21.9,14.59,18.34,18.34,0,0,1-8.74-2.06,19.81,19.81,0,0,1-6.36-5.2v28Zm8.82-50.45q0,11.1,4.49,16.4a13.77,13.77,0,0,0,10.88,5.3,14.11,14.11,0,0,0,11.13-5.49q4.62-5.49,4.63-17,0-11-4.52-16.46t-10.8-5.47q-6.22,0-11,5.82T358.9,193.36Z"></path><path class="cls-2" d="M411.73,243.81V164.29h8.88v7.47a21.92,21.92,0,0,1,7.09-6.58,19.49,19.49,0,0,1,9.58-2.19,22.67,22.67,0,0,1,13,3.79,23.22,23.22,0,0,1,8.5,10.69,39.06,39.06,0,0,1,2.87,15.13,38.47,38.47,0,0,1-3.17,15.89,24.1,24.1,0,0,1-21.89,14.59,18.34,18.34,0,0,1-8.74-2.06,19.74,19.74,0,0,1-6.37-5.2v28Zm8.82-50.45q0,11.1,4.5,16.4a13.75,13.75,0,0,0,10.88,5.3,14.08,14.08,0,0,0,11.12-5.49q4.63-5.49,4.63-17,0-11-4.52-16.46t-10.8-5.47q-6.23,0-11,5.82T420.55,193.36Z"></path><path class="cls-2" d="M501.86,196.28l9.9-.87a22,22,0,0,0,3.28,9.78,17.92,17.92,0,0,0,8,6.17,30.24,30.24,0,0,0,12.18,2.35,29,29,0,0,0,10.61-1.79,14.74,14.74,0,0,0,6.85-4.89,11.37,11.37,0,0,0,2.25-6.8,10.35,10.35,0,0,0-2.17-6.52q-2.16-2.79-7.14-4.68a139.75,139.75,0,0,0-14.13-3.87q-10.94-2.62-15.32-5a21.43,21.43,0,0,1-8.47-7.38,18.13,18.13,0,0,1-2.79-9.88,20.23,20.23,0,0,1,3.41-11.24,21.13,21.13,0,0,1,10-7.93,37.88,37.88,0,0,1,14.56-2.7,39.67,39.67,0,0,1,15.56,2.84,22.4,22.4,0,0,1,10.37,8.36,24,24,0,0,1,3.9,12.51l-10.07.75q-.81-7.51-5.49-11.36t-13.84-3.85q-9.53,0-13.88,3.5a10.44,10.44,0,0,0-4.36,8.41,9,9,0,0,0,3.09,7q3,2.76,15.83,5.66T551.5,180q6.93,3.19,10.23,8.09a19.74,19.74,0,0,1,3.3,11.29,21.55,21.55,0,0,1-3.63,11.93A23.9,23.9,0,0,1,551,220a36.36,36.36,0,0,1-15.29,3.11q-10.77,0-18.05-3.14a25.2,25.2,0,0,1-11.42-9.45A26.72,26.72,0,0,1,501.86,196.28Z"></path><path class="cls-2" d="M599.4,213.06l1.41,8.61a36.63,36.63,0,0,1-7.36.86q-5.31,0-8.23-1.67a9.35,9.35,0,0,1-4.11-4.42q-1.2-2.73-1.19-11.5V171.87h-7.15v-7.58h7.15V150.05l9.68-5.84v20.08h9.8v7.58h-9.8v33.61a17,17,0,0,0,.52,5.36,4,4,0,0,0,1.68,1.9,6.45,6.45,0,0,0,3.33.7A32.14,32.14,0,0,0,599.4,213.06Z"></path><path class="cls-2" d="M605.3,193q0-16,8.88-23.65A26.74,26.74,0,0,1,632.26,163q11.85,0,19.38,7.77t7.52,21.46q0,11.1-3.33,17.46a23.6,23.6,0,0,1-9.69,9.88,28.24,28.24,0,0,1-13.88,3.52q-12.07,0-19.51-7.75T605.3,193Zm10,0q0,11,4.81,16.54a16.05,16.05,0,0,0,24.2,0q4.81-5.52,4.82-16.83,0-10.67-4.85-16.16a16.07,16.07,0,0,0-24.17,0Q615.31,182,615.32,193Z"></path><path class="cls-2" d="M670.48,221.78V164.29h8.77V173q3.35-6.1,6.19-8.06A10.84,10.84,0,0,1,691.7,163a19,19,0,0,1,10,3.14l-3.36,9a13.9,13.9,0,0,0-7.14-2.11,9.3,9.3,0,0,0-5.74,1.92,10.39,10.39,0,0,0-3.63,5.33,38.1,38.1,0,0,0-1.62,11.37v30.1Z"></path><path class="cls-2" d="M746.85,203.26l10.07,1.25a24.56,24.56,0,0,1-8.82,13.69q-6.45,4.88-16.46,4.88-12.61,0-20-7.77t-7.39-21.79q0-14.51,7.47-22.52t19.38-8q11.53,0,18.84,7.85t7.31,22.08c0,.58,0,1.45-.06,2.6H714.32q.54,9.48,5.36,14.51a15.94,15.94,0,0,0,12,5,14.9,14.9,0,0,0,9.15-2.81Q744.63,209.43,746.85,203.26Zm-32-15.75H747q-.65-7.24-3.68-10.88A14.94,14.94,0,0,0,731.21,171a15.51,15.51,0,0,0-11.29,4.49Q715.35,180,714.86,187.51Z"></path><path class="cls-1" d="M211.31,129.36s-28.77,16.38-16,49.84c3,7.86,10.31,15.61,20.63,20.1a92,92,0,0,1-5.3,13.36,110.4,110.4,0,0,1-17.81,25.78s-5.66,6.06-12,7.46a25.78,25.78,0,0,1-14.58-1.18s-7.65-3.49-12.62-4.6a35.21,35.21,0,0,0-16.49.73c-3.7,1.29-11.39,4.38-11.39,4.38a20.22,20.22,0,0,1-19.91-2.47C96.29,235.85,85.4,217.92,83.44,214A110.81,110.81,0,0,1,71.9,178.62a94.46,94.46,0,0,1-.74-19.2c1-19.35,11-32.4,18.3-38.08A40.45,40.45,0,0,1,96.17,117c2.13-1.06,15.25-8.18,30.17-3,11.39,3.93,14.81,5.94,18.62,5.88a12.53,12.53,0,0,0,2.58-.43,43.81,43.81,0,0,0,6.67-2.2,76.42,76.42,0,0,1,7.33-2.82,65.48,65.48,0,0,1,6.84-1.91c1.18-.26,2.36-.47,3.55-.63a28.12,28.12,0,0,1,4.1-.25,58.55,58.55,0,0,1,7.12.56,42.55,42.55,0,0,1,6.51,1.46,53.67,53.67,0,0,1,5.71,2.12A36.56,36.56,0,0,1,208,125.16Z"></path><path class="cls-1" d="M178.83,68.63s-6.94,0-15.51,4.8c-9.61,5.4-22.4,18.92-20.27,36.08,0,0,4.29,1.09,10.93-1.41.73-.27,1.46-.61,2.25-.95,9.13-3.84,17.22-12.69,20.79-23A33.7,33.7,0,0,0,178.83,68.63Z"></path></svg>